<?xml version="1.0" standalone="no"?>
<!DOCTYPE svg PUBLIC "-//W3C//DTD SVG 20010904//EN"
 "http://www.w3.org/TR/2001/REC-SVG-20010904/DTD/svg10.dtd">
<svg version="1.0" xmlns="http://www.w3.org/2000/svg"
 width="204.000000pt" height="192.000000pt" viewBox="0 0 204.000000 192.000000"
 preserveAspectRatio="xMidYMid meet">
<metadata>
Created by potrace 1.10, written by Peter Selinger 2001-2011
</metadata>
<g transform="translate(0.000000,192.000000) scale(0.100000,-0.100000)"
fill="#000000" stroke="none">
<path d="M1043 1710 c-24 -33 -43 -64 -43 -69 0 -10 98 -101 110 -101 9 0 90
115 90 128 0 11 -98 102 -109 102 -3 0 -25 -27 -48 -60z m86 -24 c24 -26 20
-48 -14 -76 -13 -11 -19 -9 -40 10 -30 28 -30 30 -4 64 25 32 30 32 58 2z"/>
<path d="M1260 1607 c-138 -131 -248 -142 -357 -34 -24 22 -43 37 -43 31 0
-17 57 -102 102 -150 65 -71 107 -89 208 -89 76 0 92 3 150 32 36 18 76 41 89
51 22 18 22 20 8 43 -8 13 -30 59 -48 102 -17 42 -35 77 -38 77 -3 -1 -35 -29
-71 -63z m89 -66 c13 -27 21 -56 18 -65 -11 -28 -108 -69 -178 -74 -52 -3 -75
0 -112 16 -57 25 -60 42 -9 42 49 0 142 47 201 100 24 22 47 38 50 35 4 -2 17
-26 30 -54z"/>
<path d="M600 1463 c-71 -8 -160 -33 -228 -64 l-70 -31 36 -76 c19 -43 37 -79
38 -81 2 -2 25 10 51 27 111 71 218 102 288 82 51 -14 102 -63 110 -105 16
-86 -126 -175 -278 -175 -27 0 -47 -3 -45 -7 2 -5 23 -48 46 -98 l43 -90 67 0
c81 -1 149 -32 204 -93 51 -56 61 -79 62 -137 1 -123 -129 -229 -260 -211
-134 18 -248 125 -359 338 -29 55 -55 96 -58 92 -7 -13 19 -142 43 -216 53
-157 153 -284 269 -341 61 -30 73 -32 166 -32 80 1 111 5 157 23 72 29 151
100 186 166 49 94 31 275 -35 349 -22 24 -10 31 28 18 47 -16 119 -13 165 8
64 29 97 75 167 232 38 84 74 118 136 126 32 4 43 0 74 -26 50 -44 72 -108 71
-203 -1 -138 -72 -281 -158 -322 -79 -37 -194 -6 -247 67 l-29 40 0 -55 c0
-157 98 -271 234 -271 99 0 186 72 249 204 47 101 58 153 58 284 0 132 -18
213 -66 300 -57 102 -118 145 -206 145 -113 0 -213 -85 -324 -273 -71 -122
-148 -207 -187 -207 -10 0 -31 12 -46 26 -34 33 -119 74 -154 74 -33 0 -58 9
-58 21 0 5 8 9 18 9 37 0 112 59 152 121 44 69 58 132 41 189 -13 45 -75 112
-128 138 -52 27 -156 43 -223 35z m162 -54 c48 -12 116 -65 140 -109 45 -82
-10 -199 -128 -275 -30 -19 -54 -41 -54 -49 0 -27 35 -54 91 -71 31 -9 83 -35
115 -56 50 -35 62 -49 93 -117 31 -68 35 -86 35 -157 0 -63 -5 -89 -22 -122
-30 -58 -87 -111 -152 -142 -47 -21 -69 -25 -150 -26 -82 0 -102 4 -150 26
-30 14 -76 45 -102 68 -47 42 -116 147 -104 159 4 3 32 -20 63 -52 80 -79 166
-121 253 -121 111 1 198 53 246 147 80 158 -53 350 -261 376 -59 7 -61 8 -85
54 -13 26 -22 49 -19 52 3 3 29 10 57 16 84 16 149 49 192 98 34 38 40 51 40
91 0 82 -52 137 -151 161 -58 14 -142 -4 -236 -51 -68 -35 -88 -33 -104 8 -13
35 1 46 94 75 120 36 203 41 299 17z m842 -149 c84 -58 134 -198 135 -375 1
-170 -35 -279 -126 -376 -52 -55 -95 -73 -163 -67 -59 6 -102 35 -136 93 -33
57 -25 69 29 45 122 -56 256 8 322 152 95 208 53 418 -94 469 -82 29 -176 -44
-230 -178 -36 -91 -89 -159 -138 -179 -38 -17 -109 -18 -118 -3 -4 5 13 31 37
57 24 26 70 92 103 147 67 114 138 194 198 225 55 28 131 23 181 -10z"/>
</g>
</svg>
